<?xml version="1.0" encoding="UTF-8" standalone="no"?>
<svg
   viewBox="0 0 489.99999 120"
   height="120"
   width="490"
   xml:space="preserve"
   id="svg3737"
   version="1.1"
   xmlns="http://www.w3.org/2000/svg"
   xmlns:svg="http://www.w3.org/2000/svg"
   xmlns:rdf="http://www.w3.org/1999/02/22-rdf-syntax-ns#"
   xmlns:cc="http://creativecommons.org/ns#"
   xmlns:dc="http://purl.org/dc/elements/1.1/"><metadata
     id="metadata3743"><rdf:RDF><cc:Work
         rdf:about=""><dc:format>image/svg+xml</dc:format><dc:type
           rdf:resource="http://purl.org/dc/dcmitype/StillImage" /></cc:Work></rdf:RDF></metadata><defs
     id="defs3741" /><g
     transform="matrix(1.3333333,0,0,-1.3333333,0,793.70667)"
     id="g3745"><g
   style="fill:#ff4e00;fill-opacity:1"
   transform="matrix(0.867953,0,0,0.85348509,42.551818,542.95277)"
   id="g3749"><path
     id="path3751"
     style="fill:#ff4e00;fill-opacity:1;fill-rule:nonzero;stroke:none"
     d="M 0,0 17.576,17.576 26.363,8.789 8.787,-8.784 17.575,-17.572 43.938,8.789 17.576,35.151 -8.787,8.789 Z" /></g><g
   style="fill:#ff4e00;fill-opacity:1"
   transform="matrix(0.867953,0,0,0.85348509,4.416555,550.45406)"
   id="g3753"><path
     id="path3755"
     style="fill:#ff4e00;fill-opacity:1;fill-rule:nonzero;stroke:none"
     d="m 0,0 43.937,-43.937 8.787,8.788 -8.787,8.788 L 18.251,-0.676 17.576,0 52.725,35.15 43.937,43.938 Z" /></g>
<path
   style="font-weight:bold;font-size:50px;font-family:Gilroy;-inkscape-font-specification:'Gilroy, Bold';fill:#1a1a1a;stroke-width:7.88118"
   d="m 127.12321,551.4713 h -18.08036 v -6.28435 h 10.92033 c -1.23626,-4.12087 -4.84203,-6.85096 -10.50824,-6.85096 -7.5206,0 -12.31112,5.04808 -12.31112,11.74451 0,6.85096 4.94505,11.89904 11.79601,11.89904 4.37844,0 8.03572,-2.11195 9.68407,-4.99657 l 6.0783,3.50275 c -3.03915,4.94505 -8.85989,8.39629 -15.71086,8.39629 -10.76579,0 -18.904534,-8.34478 -18.904534,-18.80151 0,-10.3022 8.035714,-18.69849 19.316624,-18.69849 10.35371,0 17.71978,6.90247 17.71978,17.30769 z m 12.15659,-12.56869 v 8.08723 h 13.65041 v 6.69643 H 139.2798 v 7.67514 h 14.93818 v 6.79945 h -22.0467 v -36.0577 h 22.30426 v 6.79945 z m 27.30086,0 v 8.08723 h 13.65041 v 6.69643 h -13.65041 v 7.67514 h 14.93819 v 6.79945 h -22.04671 v -36.0577 h 22.30426 v 6.79945 z m 48.36885,-6.79945 -13.85645,18.54396 13.34134,17.51374 h -8.19024 l -12.36264,-15.9169 v 15.9169 H 186.773 v -36.0577 h 7.10852 v 16.89561 l 12.87774,-16.89561 z m 25.03432,29.25825 v 6.79945 h -21.53159 v -36.0577 h 7.10852 v 13.90797 h 14.01099 v 6.79945 h -14.01099 v 8.55083 z m 12.3111,-22.4588 v 29.25825 h -7.10852 v -36.0577 h 20.86195 v 6.79945 z m 41.98147,-6.79945 h 7.72664 l -12.6717,36.0577 h -8.80838 l -12.62019,-36.0577 h 7.67514 l 2.16346,6.49039 h 14.37156 z m -14.26855,13.13531 4.94506,14.73214 4.94505,-14.73214 z m 45.27812,-13.13531 h 7.67514 l -7.9842,13.5989 c 4.12087,1.90591 6.95398,5.97528 6.95398,10.50825 0,6.5934 -5.35714,11.95055 -12.00206,11.95055 h -14.42308 v -36.0577 h 7.10852 v 12.51717 h 5.40865 z m -12.6717,29.41278 h 7.31456 c 2.67857,0 4.89354,-2.318 4.89354,-5.30563 0,-2.98764 -2.21497,-5.35715 -4.89354,-5.35715 h -7.31456 z m 31.62776,-22.61333 v 8.08723 h 13.65041 v 6.69643 h -13.65041 v 7.67514 h 14.93818 v 6.79945 h -22.0467 v -36.0577 h 22.30426 v 6.79945 z"
   id="text1"
   aria-label="GEEKFLARE" /></g></svg>
