<svg xmlns="http://www.w3.org/2000/svg" xmlns:xlink="http://www.w3.org/1999/xlink" width="150px" height="44px" viewBox="0 0 150 44" version="1.1"><g id="surface1"><path style=" stroke:none;fill-rule:nonzero;fill:rgb(94.901961%,24.705882%,26.666667%);fill-opacity:1;" d="M 94.566406 40.398438 L 7.894531 40.398438 L 7.894531 36.414062 L 94.566406 36.414062 C 95.664062 36.414062 96.550781 37.308594 96.550781 38.40625 C 96.550781 39.507812 95.664062 40.398438 94.566406 40.398438 Z M 94.566406 40.398438 "></path><path style=" stroke:none;fill-rule:nonzero;fill:rgb(94.901961%,24.705882%,26.666667%);fill-opacity:1;" d="M 103.507812 36.550781 C 104.527344 36.550781 105.355469 37.382812 105.355469 38.40625 C 105.355469 39.433594 104.527344 40.265625 103.507812 40.265625 C 102.484375 40.265625 101.660156 39.433594 101.660156 38.40625 C 101.660156 37.382812 102.484375 36.550781 103.507812 36.550781 Z M 103.507812 36.550781 "></path><path style=" stroke:none;fill-rule:nonzero;fill:rgb(94.901961%,24.705882%,26.666667%);fill-opacity:1;" d="M 112.007812 36.550781 C 113.03125 36.550781 113.859375 37.382812 113.859375 38.40625 C 113.859375 39.433594 113.03125 40.265625 112.007812 40.265625 C 110.988281 40.265625 110.160156 39.433594 110.160156 38.40625 C 110.160156 37.382812 110.988281 36.550781 112.007812 36.550781 Z M 112.007812 36.550781 "></path><path style=" stroke:none;fill-rule:nonzero;fill:rgb(94.901961%,24.705882%,26.666667%);fill-opacity:1;" d="M 120.511719 36.550781 C 121.53125 36.550781 122.359375 37.382812 122.359375 38.40625 C 122.359375 39.433594 121.53125 40.265625 120.511719 40.265625 C 119.488281 40.265625 118.660156 39.433594 118.660156 38.40625 C 118.660156 37.382812 119.488281 36.550781 120.511719 36.550781 Z M 120.511719 36.550781 "></path><path style=" stroke:none;fill-rule:nonzero;fill:rgb(8.627451%,10.588235%,12.941176%);fill-opacity:1;" d="M 82.828125 26.644531 L 85.089844 26.644531 L 85.089844 32.820312 L 81.867188 32.820312 C 79.132812 32.820312 77.007812 32.140625 75.488281 30.78125 C 73.96875 29.421875 73.207031 27.175781 73.207031 24.039062 L 73.207031 15.425781 L 70.070312 15.425781 L 70.070312 9.375 L 73.207031 9.375 L 73.207031 3.113281 L 80.363281 3.113281 L 80.363281 9.375 L 85.046875 9.375 L 85.046875 15.425781 L 80.363281 15.425781 L 80.363281 24.164062 C 80.363281 25.089844 80.546875 25.730469 80.925781 26.097656 C 81.308594 26.464844 81.9375 26.644531 82.828125 26.644531 Z M 82.828125 26.644531 "></path><path style=" stroke:none;fill-rule:nonzero;fill:rgb(8.627451%,10.588235%,12.941176%);fill-opacity:1;" d="M 89.398438 3.113281 L 96.550781 3.113281 L 96.550781 32.820312 L 89.398438 32.820312 Z M 89.398438 3.113281 "></path><path style=" stroke:none;fill-rule:nonzero;fill:rgb(8.627451%,10.588235%,12.941176%);fill-opacity:1;" d="M 23.175781 9.375 L 15.144531 9.375 L 15.144531 32.820312 L 7.949219 32.820312 L 7.949219 9.375 L 0 9.375 L 0 3.113281 L 23.175781 3.113281 Z M 23.175781 9.375 "></path><path style=" stroke:none;fill-rule:nonzero;fill:rgb(8.627451%,10.588235%,12.941176%);fill-opacity:1;" d="M 38.667969 10.769531 C 36.953125 9.839844 34.964844 9.375 32.707031 9.375 C 30.476562 9.375 28.492188 9.84375 26.75 10.789062 C 25.027344 11.710938 23.617188 13.121094 22.691406 14.847656 C 21.722656 16.609375 21.242188 18.691406 21.242188 21.101562 C 21.242188 23.476562 21.730469 25.554688 22.714844 27.332031 C 23.644531 29.058594 25.054688 30.472656 26.773438 31.40625 C 28.503906 32.351562 30.480469 32.824219 32.710938 32.824219 C 34.617188 32.824219 36.34375 32.460938 37.894531 31.738281 C 39.390625 31.054688 40.703125 30.03125 41.730469 28.746094 C 42.730469 27.488281 43.402344 26.003906 43.691406 24.425781 L 36.300781 24.425781 C 36.09375 25.230469 35.617188 25.9375 34.953125 26.433594 C 34.273438 26.953125 33.417969 27.210938 32.382812 27.210938 C 31.15625 27.210938 30.152344 26.835938 29.363281 26.085938 C 28.574219 25.335938 28.136719 24.097656 28.058594 22.375 L 43.851562 22.375 C 43.980469 21.753906 44.046875 21.125 44.054688 20.488281 C 44.054688 18.304688 43.585938 16.371094 42.644531 14.691406 C 41.726562 13.023438 40.34375 11.660156 38.667969 10.769531 Z M 36.996094 19.414062 L 28.097656 19.414062 C 28.207031 17.941406 28.683594 16.820312 29.527344 16.054688 C 30.371094 15.289062 31.429688 14.90625 32.707031 14.90625 C 33.933594 14.90625 34.960938 15.28125 35.789062 16.035156 C 36.621094 16.785156 37.023438 17.914062 36.996094 19.414062 Z M 36.996094 19.414062 "></path><path style=" stroke:none;fill-rule:nonzero;fill:rgb(8.627451%,10.588235%,12.941176%);fill-opacity:1;" d="M 66.347656 22.242188 C 67.183594 23.199219 67.601562 24.484375 67.601562 26.097656 C 67.621094 27.34375 67.238281 28.566406 66.511719 29.578125 C 65.789062 30.589844 64.742188 31.382812 63.375 31.957031 C 62.011719 32.53125 60.394531 32.816406 58.523438 32.816406 C 55.371094 32.816406 52.847656 32.136719 50.953125 30.769531 C 49.054688 29.40625 47.898438 27.453125 47.476562 24.90625 L 54.382812 24.90625 C 54.496094 25.890625 54.921875 26.644531 55.660156 27.160156 C 56.398438 27.675781 57.355469 27.9375 58.527344 27.941406 C 59.335938 27.941406 59.949219 27.753906 60.367188 27.386719 C 60.785156 27.019531 61.015625 26.484375 60.992188 25.929688 C 60.992188 25.140625 60.609375 24.570312 59.84375 24.226562 C 59.078125 23.878906 57.828125 23.515625 56.097656 23.136719 C 54.371094 22.785156 52.945312 22.402344 51.832031 21.992188 C 50.71875 21.582031 49.726562 20.898438 48.945312 20.003906 C 48.136719 19.089844 47.734375 17.839844 47.734375 16.25 C 47.734375 14.203125 48.527344 12.542969 50.117188 11.273438 C 51.707031 10 53.949219 9.367188 56.847656 9.375 C 59.804688 9.375 62.167969 10.097656 63.941406 11.546875 C 65.710938 12.992188 66.820312 14.90625 67.265625 17.289062 L 60.574219 17.289062 C 60.375 16.359375 59.9375 15.628906 59.253906 15.09375 C 58.574219 14.5625 57.714844 14.296875 56.679688 14.296875 C 55.871094 14.296875 55.257812 14.46875 54.839844 14.8125 C 54.425781 15.152344 54.214844 15.636719 54.214844 16.265625 C 54.214844 16.976562 54.597656 17.507812 55.363281 17.855469 C 56.132812 18.207031 57.339844 18.5625 58.988281 18.921875 C 60.773438 19.332031 62.238281 19.75 63.382812 20.175781 C 64.527344 20.601562 65.546875 21.3125 66.347656 22.242188 Z M 66.347656 22.242188 "></path><path style=" stroke:none;fill-rule:nonzero;fill:rgb(8.627451%,10.588235%,12.941176%);fill-opacity:1;" d="M 150 9.375 L 135.441406 43.996094 L 127.578125 43.996094 L 133.054688 31.941406 L 125.890625 15.429688 L 122.195312 15.429688 L 122.195312 32.828125 L 115.039062 32.828125 L 115.039062 15.429688 L 112.238281 15.429688 L 112.238281 9.375 L 115.039062 9.375 L 115.039062 9.121094 C 115.039062 6.207031 115.886719 3.960938 117.574219 2.378906 C 119.261719 0.796875 121.707031 0.00390625 124.914062 0.00390625 C 125.585938 0.00390625 126.085938 0.0195312 126.421875 0.046875 L 126.421875 6.222656 L 125.628906 6.183594 C 124.453125 6.183594 123.597656 6.433594 123.070312 6.941406 C 122.542969 7.445312 122.25 8.257812 122.191406 9.378906 L 131.25 9.378906 L 136.855469 23.746094 L 142.089844 9.375 Z M 150 9.375 "></path><path style=" stroke:none;fill-rule:nonzero;fill:rgb(8.627451%,10.588235%,12.941176%);fill-opacity:1;" d="M 101.78125 9.375 L 108.933594 9.375 L 108.933594 32.820312 L 101.78125 32.820312 Z M 101.78125 9.375 "></path><path style=" stroke:none;fill-rule:nonzero;fill:rgb(8.627451%,10.588235%,12.941176%);fill-opacity:1;" d="M 108.980469 3.644531 C 108.980469 5.65625 107.359375 7.285156 105.355469 7.285156 C 103.355469 7.285156 101.734375 5.65625 101.734375 3.644531 C 101.734375 1.632812 103.355469 0.00390625 105.355469 0.00390625 C 107.359375 0.00390625 108.980469 1.632812 108.980469 3.644531 Z M 108.980469 3.644531 "></path></g></svg>